# xmcd
#
# Track frame offsets:
#	150
#	13802
#	35235
#	55942
#	83860
#	122865
#
# Disc length: 1924 seconds
#
# Revision: 1
# Processed by: cddbd v1.4b42PL1 Copyright (c) Steve Scherf et al.
# Submitted via: audiograbber 1.80
#
DISCID=4f078206
DTITLE=Southend - Confession-The Dream
DYEAR=1900
DGENRE=
TTITLE0=Confession (Radio Edit)
TTITLE1=The Dream (Opus No. 2 - Liza is Born)
TTITLE2=Freak (The Sky is the Limit)
TTITLE3=Confession (Californian Whites Mix)
TTITLE4=The Dream (Mile High Club Mix)
TTITLE5=Quixotic
EXTD=
EXTT0=
EXTT1=
EXTT2=
EXTT3=
EXTT4=
EXTT5=
PLAYORDER=
